<svg width="270.000000" height="251.000000" viewBox="0 0 270 251" fill="none" xmlns="http://www.w3.org/2000/svg" xmlns:xlink="http://www.w3.org/1999/xlink">
	<desc>
			Created with Pixso.
	</desc>
	<defs>
		<clipPath id="clip1_6972">
			<rect id="IMAGE" width="270.000000" height="251.000000" fill="white" fill-opacity="0"/>
		</clipPath>
	</defs>
	<g clip-path="url(#clip1_6972)">
		<g opacity="0.900000">
			<path id="Vector" d="M109.773 128.603L116.958 128.603C117.345 133.24 121.208 136.871 125.998 136.871L129.398 136.871C129.861 136.871 130.171 136.562 130.171 136.098L130.171 119.564C130.171 119.1 129.862 118.791 129.398 118.791L125.998 118.791C121.285 118.791 117.422 122.422 116.958 127.058L109.773 127.058C109.309 127.058 109 127.367 109 127.831C109 128.295 109.309 128.603 109.773 128.603ZM125.998 120.336L128.625 120.336L128.625 135.326L125.998 135.326C121.903 135.326 118.504 131.926 118.504 127.831C118.504 123.736 121.826 120.336 125.998 120.336Z" fill="#FFFFFF" fill-opacity="1.000000" fill-rule="nonzero"/>
			<path id="Vector" d="M135.425 131.308C134.962 131.308 134.652 131.616 134.652 132.081C134.652 132.544 134.961 132.853 135.425 132.853L139.83 132.853L139.83 136.176C139.83 136.639 140.138 136.948 140.602 136.948L144.002 136.948C148.715 136.948 152.579 133.317 153.042 128.681L160.228 128.681C160.691 128.681 161 128.372 161 127.908C161 127.444 160.692 127.135 160.228 127.135L153.042 127.135C152.656 122.499 148.793 118.867 144.002 118.867L140.602 118.867C140.139 118.867 139.83 119.176 139.83 119.64L139.83 122.962L135.425 122.962C134.962 122.962 134.652 123.271 134.652 123.735C134.652 124.199 134.961 124.508 135.425 124.508L139.83 124.508L139.83 131.385L135.425 131.385L135.425 131.308ZM141.298 120.336L143.924 120.336C148.02 120.336 151.419 123.736 151.419 127.831C151.419 131.926 148.019 135.325 143.924 135.325L141.298 135.325L141.298 120.336Z" fill="#FFFFFF" fill-opacity="1.000000" fill-rule="nonzero"/>
		</g>
		<path id="Vector" d="M173.543 78.2898C183.576 78.2898 191.71 86.4233 191.71 96.4565L191.71 154.543C191.71 164.577 183.576 172.71 173.543 172.71L96.4566 172.71C86.4234 172.71 78.2899 164.577 78.2899 154.543L78.2899 96.4565C78.2899 86.4233 86.4234 78.2898 96.4566 78.2898L173.543 78.2898Z" stroke="#FFFFFF" stroke-opacity="0.300000" stroke-width="1.579710"/>
		<path id="Vector" d="M174.5 75.1304C185.75 75.1304 194.869 84.2502 194.869 95.5L194.869 155.5C194.869 166.75 185.75 175.869 174.5 175.869L95.5 175.869C84.2502 175.869 75.1304 166.75 75.1304 155.5L75.1304 95.5C75.1304 84.2502 84.2502 75.1304 95.5 75.1304L174.5 75.1304Z" stroke="#FFFFFF" stroke-opacity="0.080000" stroke-width="4.739130"/>
		<path id="Vector" d="M184.5 50.2898C203.946 50.2898 219.71 66.054 219.71 85.5L219.71 165.5C219.71 184.946 203.946 200.71 184.5 200.71L85.5 200.71C66.054 200.71 50.2899 184.946 50.2899 165.5L50.2899 85.5C50.2899 66.054 66.054 50.2898 85.5 50.2898L184.5 50.2898Z" stroke="#FFFFFF" stroke-opacity="0.150000" stroke-width="1.579710"/>
		<path id="Vector" d="M208.5 25.2898C228.498 25.2898 244.71 41.5017 244.71 61.5L244.71 189.5C244.71 209.498 228.498 225.71 208.5 225.71L61.5 225.71C41.5017 225.71 25.2899 209.498 25.2899 189.5L25.2899 61.5C25.2899 41.5017 41.5017 25.2898 61.5 25.2898L208.5 25.2898Z" stroke="#FFFFFF" stroke-opacity="0.050000" stroke-width="1.579710"/>
		<path id="Vector" d="M229.5 250C251.315 250 269 232.315 269 210.5L269 40.5C269 18.6848 251.315 1 229.5 1L40.5 1C18.6848 1 1 18.6848 1 40.5L1 210.5C1 232.315 18.6848 250 40.5 250L229.5 250Z" stroke="#FFFFFF" stroke-opacity="0.100000" stroke-width="1.000000"/>
	</g>
</svg>
