<svg width="64.000000" height="64.000000" viewBox="0 0 64 64" fill="none" xmlns="http://www.w3.org/2000/svg" xmlns:xlink="http://www.w3.org/1999/xlink">
	<desc>
			Created with Pixso.
	</desc>
	<defs>
		<clipPath id="clip1_7130">
			<rect id="Frame" width="64.000000" height="64.000000" fill="white" fill-opacity="0"/>
		</clipPath>
	</defs>
	<rect id="Frame" width="64.000000" height="64.000000" fill="#FFFFFF" fill-opacity="0"/>
	<g clip-path="url(#clip1_7130)">
		<path id="Vector" d="M0.879517 20.7007L0.879517 43.3018C0.879517 51.103 7.13831 57.4277 14.8592 57.4277C16.6499 57.4277 18.3614 57.0879 19.9344 56.4678C22.3657 60.6343 26.853 63.4297 31.9861 63.4297C37.1194 63.4297 41.606 60.6338 44.0373 56.4673C45.6547 57.1035 47.3754 57.4292 49.1111 57.4272C56.832 57.4272 63.0915 51.1025 63.0915 43.3003L63.0915 20.6997C63.0915 12.8984 56.832 6.57471 49.1111 6.57471C47.3217 6.57471 45.6109 6.91455 44.0373 7.5332C41.6066 3.3667 37.12 0.569824 31.9868 0.569824C26.8523 0.569824 22.3651 3.3667 19.9344 7.53369C18.3169 6.89795 16.5962 6.57227 14.8605 6.57471C7.13898 6.57471 0.879517 12.8984 0.879517 20.7007Z" fill="#BEE4FE" fill-opacity="1.000000" fill-rule="nonzero"/>
	</g>
</svg>
