<svg width="64.000000" height="64.000000" viewBox="0 0 64 64" fill="none" xmlns="http://www.w3.org/2000/svg" xmlns:xlink="http://www.w3.org/1999/xlink">
	<desc>
			Created with Pixso.
	</desc>
	<defs>
		<clipPath id="clip1_7155">
			<rect id="Frame" width="64.000000" height="64.000000" fill="white" fill-opacity="0"/>
		</clipPath>
	</defs>
	<rect id="Frame" width="64.000000" height="64.000000" fill="#FFFFFF" fill-opacity="0"/>
	<g clip-path="url(#clip1_7155)">
		<path id="Vector" d="M25.306 3.3457C16.032 0.874023 6.5 6.3501 4.01599 15.5757C2.38702 21.6211 4.19 27.7769 8.23602 32C6.22028 34.0942 4.76837 36.665 4.01599 39.4731C1.53003 48.6997 7.034 58.1821 16.308 60.6538C19.1553 61.4155 22.1491 61.4424 25.0098 60.7329C27.8704 60.0234 30.5045 58.6006 32.666 56.5967C34.7494 58.5327 37.277 59.9258 40.026 60.6538C49.3 63.126 58.832 57.6509 61.317 48.4248C62.945 42.3789 61.143 36.2217 57.097 32.001C59.1129 29.9062 60.5648 27.335 61.317 24.5269C63.802 15.3008 58.298 5.81885 49.025 3.34717C46.1779 2.58545 43.1841 2.55762 40.3234 3.26709C37.4627 3.97656 34.8286 5.39941 32.667 7.40283C30.5833 5.46729 28.0553 4.07373 25.306 3.3457Z" fill="#2C4E7B" fill-opacity="1.000000" fill-rule="nonzero"/>
	</g>
</svg>
