<svg width="64.000000" height="64.000000" viewBox="0 0 64 64" fill="none" xmlns="http://www.w3.org/2000/svg" xmlns:xlink="http://www.w3.org/1999/xlink">
	<desc>
			Created with Pixso.
	</desc>
	<defs>
		<clipPath id="clip1_7125">
			<rect id="Frame" width="64.000000" height="64.000000" fill="white" fill-opacity="0"/>
		</clipPath>
	</defs>
	<rect id="Frame" width="64.000000" height="64.000000" fill="#FFFFFF" fill-opacity="0"/>
	<g clip-path="url(#clip1_7125)">
		<path id="Vector" d="M4.20062 14.5459C2.19336 7.99316 8.32608 1.86035 14.879 3.86768L29.8293 8.44727C31.4612 8.94727 33.2053 8.94727 34.8372 8.44727L49.7876 3.86768C56.3404 1.86035 62.4731 7.99316 60.4659 14.5459L55.8863 29.4961C55.3865 31.1284 55.3865 32.8721 55.8863 34.5044L60.4659 49.4546C62.4731 56.0073 56.3404 62.1401 49.7876 60.1328L34.8372 55.5532C33.2053 55.0537 31.4612 55.0537 29.8293 55.5532L14.879 60.1328C8.32611 62.1401 2.19336 56.0073 4.20062 49.4546L8.78018 34.5044C9.28006 32.8721 9.28006 31.1284 8.78018 29.4961L4.20062 14.5459Z" fill="#35B454" fill-opacity="1.000000" fill-rule="nonzero"/>
	</g>
</svg>
