<svg width="110.000000" height="64.000000" viewBox="0 0 110 64" fill="none" xmlns="http://www.w3.org/2000/svg" xmlns:xlink="http://www.w3.org/1999/xlink">
	<desc>
			Created with Pixso.
	</desc>
	<defs>
		<clipPath id="clip1_7204">
			<rect id="IMAGE" width="110.000000" height="64.000000" fill="white" fill-opacity="0"/>
		</clipPath>
	</defs>
	<g clip-path="url(#clip1_7204)">
		<path id="Vector" d="M106.733 43.6821C108.539 43.6821 110 42.2061 110 40.3809C110 38.5352 108.539 37.0791 106.733 37.0791C104.906 37.0791 103.466 38.5352 103.466 40.3809C103.466 42.2061 104.906 43.6821 106.733 43.6821Z" fill="#1B1A1A" fill-opacity="1.000000" fill-rule="nonzero"/>
		<path id="Vector" d="M14.0802 43.0884L21.472 21.0444L15.3457 21.0444L10.8866 37.7827L10.7661 37.7827L6.28693 21.0444L0 21.0444L7.4519 43.0884L14.0802 43.0884ZM29.8689 43.561C35.1918 43.561 39.0482 40.6616 39.691 36.3433L34.3079 36.3433C33.7654 38.0298 32.1184 39.1196 29.9693 39.1196C26.9764 39.1196 25.028 36.9604 25.028 33.8145L25.028 33.4443L39.8716 33.4443L39.8716 31.6138C39.8716 24.9102 35.9148 20.5713 29.6479 20.5713C23.2806 20.5713 19.2634 25.1362 19.2634 32.1689C19.2634 39.2227 23.2405 43.561 29.8689 43.561ZM34.3136 29.7632L25.1746 29.7632C25.3754 27.0078 27.2234 25.0127 29.7944 25.0127C32.4055 25.0127 34.1933 26.9458 34.3136 29.7632ZM51.0306 43.561C56.3535 43.561 60.2101 40.6616 60.8529 36.3433L55.4698 36.3433C54.9274 38.0298 53.2803 39.1196 51.1312 39.1196C48.1383 39.1196 46.1899 36.9604 46.1899 33.8145L46.1899 33.4443L61.0335 33.4443L61.0335 31.6138C61.0335 24.9102 57.0767 20.5713 50.8099 20.5713C44.4425 20.5713 40.4255 25.1362 40.4255 32.1689C40.4255 39.2227 44.4024 43.561 51.0306 43.561ZM55.4755 29.7632L46.3364 29.7632C46.5374 27.0078 48.3853 25.0127 50.9564 25.0127C53.5675 25.0127 55.355 26.9458 55.4755 29.7632ZM68.3226 50.2856L68.3226 39.3867L68.4431 39.3867C69.5883 41.875 71.9984 43.438 75.1318 43.438C80.515 43.438 83.8493 39.1606 83.8493 32.0664C83.8493 24.9512 80.4948 20.6948 75.0315 20.6948C71.918 20.6948 69.5278 22.2988 68.3629 24.8896L68.2424 24.8896L68.2424 21.0444L62.4575 21.0444L62.4575 50.2856L68.3226 50.2856ZM73.0632 38.6055C70.1908 38.6055 68.3027 36.0557 68.3027 32.0664C68.3027 28.1182 70.1908 25.5068 73.0632 25.5068C75.9955 25.5068 77.8436 28.0767 77.8436 32.0664C77.8436 36.0762 75.9955 38.6055 73.0632 38.6055ZM92.7953 43.561C98.4796 43.561 102.376 40.7031 102.376 36.3638C102.376 33.0737 100.629 31.3262 96.3103 30.3389L92.1926 29.4341C90.3045 28.9819 89.3805 28.2417 89.3805 27.1519C89.3805 25.7324 90.7062 24.7866 92.7348 24.7866C94.9044 24.7866 96.2901 25.8765 96.4106 27.645L101.814 27.645C101.733 23.3677 98.2183 20.5713 92.8152 20.5713C87.2916 20.5713 83.7364 23.3267 83.7364 27.5215C83.7364 30.771 85.8252 32.9507 89.9028 33.8965L93.8797 34.8013C95.8082 35.2739 96.5312 35.8911 96.5312 37.0015C96.5312 38.4409 95.1855 39.3457 92.9559 39.3457C90.6258 39.3457 89.2 38.2764 88.9185 36.4258L83.1942 36.4258C83.5154 40.7236 87.0505 43.561 92.7953 43.561Z" fill="#1B1A1A" fill-opacity="1.000000" fill-rule="evenodd"/>
	</g>
</svg>
