<svg width="103.000000" height="64.000000" viewBox="0 0 103 64" fill="none" xmlns="http://www.w3.org/2000/svg" xmlns:xlink="http://www.w3.org/1999/xlink">
	<desc>
			Created with Pixso.
	</desc>
	<defs>
		<clipPath id="clip1_6169">
			<rect id="IMAGE" width="103.000000" height="64.000000" fill="white" fill-opacity="0"/>
		</clipPath>
	</defs>
	<g clip-path="url(#clip1_6169)">
		<mask id="mask1_6179" mask-type="alpha" maskUnits="userSpaceOnUse" x="1.016479" y="9.142822" width="100.966797" height="41.142822">
			<path id="Vector" d="M1.01648 9.14282L101.983 9.14282L101.983 50.2856L1.01648 50.2856L1.01648 9.14282Z" fill="#000000" fill-opacity="1.000000" fill-rule="evenodd"/>
		</mask>
		<g mask="url(#mask1_6179)">
			<path id="Vector" d="M80.2463 31.5769L80.2463 24.4568C80.6888 24.384 81.0754 24.429 81.4617 24.4177C81.8483 24.4121 82.2235 24.4177 82.6044 24.4177C82.9852 24.4177 83.3885 24.4177 83.7861 24.4177C84.1615 24.4177 84.5424 24.3953 84.8672 24.429C84.9175 24.4849 84.9287 24.4961 84.9399 24.5071C84.9454 24.5183 84.9512 24.5295 84.9567 24.5408C84.9679 24.6191 84.9736 24.6917 84.9791 24.7703L84.9791 45.4421C84.9791 45.4812 84.9624 45.5149 84.9454 45.5483C84.9454 45.5596 84.9287 45.5652 84.923 45.5764C84.6655 45.6489 80.8568 45.6714 80.3024 45.5986C80.196 45.3303 80.2633 45.0393 80.2521 44.7598C80.2408 44.4802 80.2521 44.2061 80.2521 43.8706C80.1456 43.9712 80.0729 44.0327 80.0056 44.0999C78.7062 45.4587 77.0932 46.0742 75.2392 45.9119C72.2371 45.6489 70.2041 44.0327 69.0894 41.2529C68.7255 40.3413 68.5742 39.3848 68.5181 38.406C68.4398 37.075 68.5742 35.7773 68.9999 34.5188C69.5712 32.8242 70.6017 31.4817 72.1643 30.5869C73.279 29.9436 74.5502 29.6248 75.8384 29.6641C76.9643 29.6863 78.0229 29.9436 78.9694 30.5645C79.3278 30.7993 79.6526 31.0847 79.9889 31.3533C80.0616 31.4148 80.1345 31.4875 80.2463 31.5769ZM80.2743 37.718C80.2967 36.9016 80.0841 36.1016 79.6638 35.4026C78.9357 34.2114 77.7261 33.5735 76.2362 33.7974C75.0039 33.9875 74.1526 34.7202 73.6429 35.8499C73.3236 36.5715 73.195 37.3601 73.262 38.1487C73.3406 39.2114 73.7102 40.1621 74.4999 40.9229C75.9114 42.2822 78.2525 42.0974 79.4288 40.5312C80.0335 39.7148 80.2855 38.7976 80.2688 37.718L80.2743 37.718Z" fill="#1B1A1A" fill-opacity="1.000000" fill-rule="nonzero"/>
			<path id="Vector" d="M51.3292 27.2869C51.7211 26.2578 52.0853 25.3013 52.4494 24.3447C53.5975 21.3245 54.7568 18.3042 55.8937 15.2783C56.4092 13.9082 57.1485 12.6887 58.2126 11.6709C61.8364 8.19751 67.5884 8.31494 71.061 11.9338C71.6603 12.5547 72.1643 13.2593 72.5621 14.02C73.1838 15.2002 73.531 16.5034 73.5701 17.8345C73.6599 20.262 72.9148 22.3872 71.313 24.2107C69.8736 25.8494 68.059 26.8394 65.9026 27.1692C65.4265 27.2419 64.9449 27.2812 64.4688 27.2869C60.2568 27.2981 56.045 27.2981 51.8387 27.2869L51.3292 27.2869ZM61.1978 12.9126C61.2202 13.0244 61.2371 13.1084 61.2596 13.1921C61.3323 13.4495 61.4164 13.7012 61.4722 13.9585C61.5562 14.3835 61.3436 14.8086 60.9627 15.0044C60.7104 15.1331 60.4193 15.1553 60.1506 15.0659C59.8649 14.9763 59.5735 14.8926 59.2655 14.803C59.1591 14.9819 59.0751 15.1274 58.9855 15.2783C59.0526 15.3511 59.092 15.3958 59.1366 15.4407C59.3159 15.6028 59.4953 15.7595 59.6688 15.9272C60.268 16.5256 60.033 17.4316 59.2208 17.6555C59.0862 17.6946 58.9462 17.7114 58.8118 17.7449C58.6326 17.7898 58.4534 17.8401 58.2687 17.8904L58.2687 18.416C58.347 18.4441 58.4197 18.4778 58.4871 18.4944C58.767 18.5728 59.0583 18.6174 59.3328 18.7126C59.848 18.8916 60.0945 19.4172 59.9432 19.9375C59.8759 20.1445 59.7528 20.3235 59.5848 20.4631L58.9574 21.0449L59.2543 21.5259C59.5735 21.4309 59.8538 21.3469 60.1282 21.2686C60.5258 21.1567 60.8842 21.2126 61.1754 21.5203C61.4667 21.8279 61.5116 22.1804 61.3882 22.5718C61.3042 22.8459 61.226 23.1257 61.1307 23.4331L61.6235 23.707C61.87 23.45 62.0829 23.2207 62.3013 22.9971C62.5699 22.7117 62.9845 22.6165 63.3486 22.762C63.7295 22.8962 63.9366 23.187 64.0151 23.573C64.0767 23.8528 64.1438 24.1323 64.2056 24.4062L64.7712 24.4062C64.8273 24.177 64.8834 23.9756 64.9337 23.7632C64.9561 23.668 64.9783 23.5674 65.0065 23.4666C65.1912 22.678 66.205 22.4824 66.698 23.0081L67.3812 23.7354L67.8685 23.4612C67.7733 23.1367 67.6893 22.8347 67.5995 22.5327C67.4427 22.0012 67.7454 21.4365 68.283 21.2798C68.4789 21.2239 68.6863 21.2239 68.8823 21.2854C69.0894 21.3525 69.2911 21.4141 69.4984 21.4756C69.5936 21.5037 69.6888 21.5146 69.8008 21.5371L70.0752 21.0674C69.8063 20.8157 69.5543 20.603 69.3304 20.3682C68.9495 19.9709 68.9608 19.3335 69.3583 18.9531C69.476 18.8413 69.6158 18.7629 69.7672 18.7183C69.8848 18.679 70.0137 18.6624 70.1368 18.6343C70.3554 18.5784 70.568 18.5225 70.8033 18.4609C70.7921 18.2539 70.7809 18.0862 70.7697 17.9185C70.4113 17.8289 70.0864 17.7729 69.7784 17.6724C69.2519 17.5212 68.955 16.9731 69.1063 16.4473C69.151 16.2908 69.2407 16.1453 69.3526 16.0278C69.5096 15.8601 69.6832 15.7146 69.8456 15.5525C69.924 15.4741 69.9967 15.3904 70.0864 15.2952L69.7953 14.8311C69.4703 14.926 69.1846 15.0212 68.8935 15.0994C68.1766 15.3008 67.5492 14.7974 67.5995 14.0591C67.6165 13.9192 67.6444 13.7852 67.6893 13.6565C67.7566 13.416 67.8348 13.1809 67.9077 12.9404C67.8069 12.8733 67.7341 12.823 67.6614 12.7783C67.5884 12.7336 67.5101 12.6943 67.3924 12.6272C67.3084 12.728 67.2357 12.8286 67.1516 12.9238C67.0173 13.0747 66.8772 13.2258 66.7426 13.3711C66.3899 13.7458 65.5945 13.7795 65.2361 13.2593C65.1408 13.1084 65.0735 12.946 65.0344 12.7783C64.9561 12.5154 64.9055 12.2471 64.844 11.9673C64.7657 11.9504 64.6872 11.9395 64.6032 11.9338C64.5024 11.9338 64.4072 11.9448 64.2896 11.9504C64.256 12.0513 64.2168 12.1462 64.1944 12.2415C64.1383 12.4482 64.1047 12.6609 64.0431 12.8677C64.004 13.0132 63.9366 13.1475 63.8472 13.2705C63.5109 13.7012 62.8893 13.7795 62.458 13.4495C62.4131 13.416 62.374 13.3823 62.3404 13.3433C62.1108 13.1138 61.8925 12.8677 61.6683 12.6272C61.545 12.6943 61.4443 12.7502 61.3491 12.8062C61.2987 12.8398 61.2426 12.8789 61.1978 12.9238L61.1978 12.9126Z" fill="#1B1A1A" fill-opacity="1.000000" fill-rule="nonzero"/>
			<path id="Vector" d="M24.9995 45.9902C23.1736 45.9565 21.3757 45.4365 19.813 44.2341C18.1216 42.9365 17.091 41.2361 16.7606 39.1218C16.4301 36.9907 16.8558 35.0164 18.0824 33.2434C19.2698 31.5264 20.9108 30.4302 22.9326 29.9436C25.4644 29.3281 27.8727 29.6641 30.057 31.1182C31.9893 32.4045 33.1544 34.2056 33.524 36.51C34.1401 40.3467 32.0342 43.9375 28.4495 45.3582C27.3742 45.7832 26.2149 45.979 24.9883 45.9958L24.9995 45.9902ZM25.1171 33.8308C23.5545 33.7693 22.1374 34.7312 21.6277 36.2078C21.3757 36.9126 21.3029 37.6677 21.3981 38.4114C21.6837 40.7158 23.7056 42.1589 25.8395 41.7842C27.1389 41.5549 28.0632 40.8557 28.5841 39.6475C28.9089 38.8867 28.9872 38.0981 28.8977 37.2705C28.6848 35.3464 27.1053 33.7749 25.1171 33.8308Z" fill="#1B1A1A" fill-opacity="1.000000" fill-rule="nonzero"/>
			<path id="Vector" d="M101.899 39.4182C101.715 39.5637 101.513 39.5247 101.328 39.5247L91.3473 39.5247C91.4146 39.7258 91.4594 39.877 91.521 40.0225C92.0811 41.3313 93.1003 41.9856 94.5007 42.0696C95.2119 42.1086 95.9177 42.0525 96.5897 41.7729C97.1611 41.5269 97.6875 41.1914 98.1523 40.783C98.2476 40.6992 98.3428 40.6152 98.4604 40.509C98.5499 40.5369 98.6396 40.5759 98.718 40.6265C99.519 41.3254 100.32 42.0303 101.115 42.7351C101.166 42.7908 101.205 42.8525 101.238 42.9194C101.177 43.0259 101.11 43.1208 101.037 43.2161C99.7653 44.7039 98.1636 45.5874 96.2256 45.8726C94.6295 46.1077 93.0667 45.9902 91.5601 45.4084C89.2973 44.5305 87.7404 42.9419 87.0011 40.6377C86.2112 38.188 86.3904 35.783 87.6564 33.5232C88.827 31.4314 90.6416 30.1785 93.0051 29.7759C94.4333 29.5186 95.9065 29.6528 97.2675 30.1619C99.0036 30.8105 100.225 32.0298 101.02 33.6855C101.574 34.8374 101.855 36.0625 101.955 37.332C101.989 37.9529 101.983 38.5681 101.939 39.189C101.933 39.2729 101.916 39.3511 101.894 39.4294L101.899 39.4182ZM91.2912 36.3477L97.3066 36.3477C97.2787 36.2024 97.2617 36.0793 97.2281 35.9619C96.8642 34.7034 96.1416 33.7861 94.7751 33.5847C93.7444 33.4336 92.8483 33.73 92.1481 34.53C91.6945 35.0447 91.4425 35.6597 91.2912 36.3477Z" fill="#1B1A1A" fill-opacity="1.000000" fill-rule="nonzero"/>
			<path id="Vector" d="M34.2297 49.0833C34.7394 47.9368 35.2603 46.835 35.7701 45.7666C35.9717 45.6548 36.1003 45.7441 36.2349 45.8171C36.6717 46.0518 37.131 46.2307 37.6351 46.2644C37.747 46.27 37.8646 46.27 37.9768 46.2644C38.3801 46.2644 38.7498 46.0518 38.9457 45.6938L39.0745 45.4758C38.8617 44.9331 38.6488 44.385 38.4359 43.8315C36.7726 39.5862 35.1147 35.3354 33.4512 31.0903C33.3672 30.8779 33.2832 30.6707 33.2104 30.4526C33.1768 30.3298 33.1489 30.2122 33.1264 30.0835C33.2496 29.9211 33.3896 29.9158 33.5297 29.9158L37.7136 29.9158C37.8367 29.927 37.9543 29.9436 38.072 29.9661C39.1697 33.2493 40.2675 36.5269 41.3877 39.866C42.4575 36.5269 43.5104 33.2605 44.569 29.9717C44.7089 29.9436 44.8434 29.927 44.9833 29.9158C46.3051 29.9158 47.6215 29.9158 48.9433 29.9158C49.0777 29.9211 49.212 29.9436 49.3409 29.9717C49.4977 30.1619 49.4082 30.3015 49.3576 30.4414C48.9376 31.5657 48.5118 32.6899 48.0919 33.8086C46.5629 37.8745 45.0339 41.9463 43.5047 46.0127C43.1744 46.8909 42.7823 47.7354 42.2165 48.4961C41.3877 49.6201 40.2618 50.1853 38.8784 50.2581C37.7694 50.3193 36.6774 50.2131 35.6355 49.7993C35.2603 49.6482 34.9019 49.458 34.5435 49.2791C34.437 49.2175 34.3361 49.1448 34.2408 49.0667L34.2297 49.0833Z" fill="#1B1A1A" fill-opacity="1.000000" fill-rule="nonzero"/>
			<path id="Vector" d="M1.039 46.9521C2.18158 45.5708 3.64337 43.9878 3.97943 43.7922C4.06348 43.865 4.15308 43.9431 4.24829 44.0215C4.63477 44.3628 5.01001 44.7319 5.41888 45.0449C6.08539 45.5652 6.91431 45.8281 7.76007 45.7944C8.89142 45.7498 9.58032 45.1401 9.86597 44.2454C10.0116 43.7754 10.0844 43.2832 10.0788 42.791L10.0788 24.8481C10.0788 24.7253 10.0956 24.6023 10.1068 24.4568C10.5381 24.3784 10.9413 24.4287 11.339 24.4175C11.7366 24.4065 12.1511 24.4175 12.5544 24.4175C12.9576 24.4175 13.3441 24.4175 13.7361 24.4175C14.1282 24.4175 14.5427 24.3896 14.9796 24.4458C14.9908 24.5911 15.0132 24.7141 15.0132 24.8315L15.0132 43.0315C15.0132 44.0996 14.8619 45.1514 14.4811 46.1523C13.7698 48.0261 12.4424 49.2566 10.5436 49.8774C9.56909 50.1907 8.56653 50.2969 7.54718 50.2803C5.82214 50.2522 4.22028 49.8047 2.79205 48.8259C2.20959 48.4233 1.67188 47.9478 1.20142 47.4221C1.07819 47.2822 0.982971 47.1423 1.05017 46.9468L1.039 46.9521Z" fill="#1B1A1A" fill-opacity="1.000000" fill-rule="nonzero"/>
			<path id="Vector" d="M55.6699 45.554C55.3394 45.6489 51.7099 45.677 50.9818 45.6042C50.9484 45.5205 50.926 45.4309 50.9035 45.3416C50.8978 45.252 50.8978 45.1626 50.9035 45.073L50.9035 30.5254C50.9035 30.3521 50.926 30.1785 50.9372 29.9829C51.0828 29.9548 51.2283 29.938 51.3739 29.927C52.6396 29.927 53.9111 29.927 55.1769 29.927C55.3337 29.938 55.4907 29.9548 55.6417 29.9829C55.6978 30.3743 55.6642 30.7434 55.6699 31.1013C55.6754 31.4595 55.6699 31.834 55.6699 32.2817C56.3419 31.1572 57.154 30.3071 58.3582 29.9045C59.0527 29.6694 59.7865 29.5969 60.5091 29.6919C60.5706 30.1169 60.5312 30.5142 60.537 30.9167C60.5425 31.3196 60.537 31.7278 60.537 32.1306L60.537 34.4741C60.3633 34.6643 60.184 34.6028 60.0273 34.6028C59.4168 34.5916 58.8119 34.6978 58.2405 34.916C57.07 35.3689 56.3531 36.2471 55.9835 37.416C55.7651 38.1318 55.653 38.876 55.6587 39.6196C55.6587 41.4541 55.6587 43.2944 55.6587 45.1289L55.6587 45.543L55.6699 45.554Z" fill="#1B1A1A" fill-opacity="1.000000" fill-rule="nonzero"/>
			<path id="Vector" d="M66.8715 29.9937L66.8715 45.3638C66.866 45.4365 66.8547 45.5034 66.8323 45.5706C66.513 45.6545 62.5029 45.6545 62.1612 45.5706C62.1557 45.4531 62.1387 45.3191 62.1387 45.1848L62.1387 30.0049C62.2788 29.9717 62.4244 29.9492 62.5699 29.938C63.8639 29.938 65.1575 29.938 66.4515 29.938C66.597 29.9492 66.7371 29.9717 66.8772 30.0049L66.8715 29.9937Z" fill="#1B1A1A" fill-opacity="1.000000" fill-rule="nonzero"/>
		</g>
	</g>
</svg>
